<?xml version="1.0" encoding="UTF-8" standalone="no"?>

<svg
   width="53.251858mm"
   height="10.586409mm"
   viewBox="0 0 53.0 10.0"
   version="1.1">
  <g transform="translate(-60.080036,-121.27027)">
    <g transform="matrix(0.264583,0,0,0.264583,60.150446,121.27336)">
      <title>MerchandiseY Logo</title>
      <g
         fill="#006340">
        <path
           d="M 189.328,20.0056 201.001,10 V 0 l -20.4,17.4859 v -4.986 L 166.001,0 V 10 L 177.674,19.9944 166.001,30 v 10 l 20.4,-17.4856 c -0.43676,0.05032 2.927,-2.5088 2.927,-2.5088 z"/>
        <path
           d="m 111.351,32.5 c -5.25,0 -8.6,-3.7 -8.6,-8.7 0,-5 3.35,-8.7 8.6,-8.7 4.05,0 6.95,2.25 7.7,5 h 7.15 c -1.3,-6.5 -6.95,-10.50002 -14.85,-10.50002 -9.45,0 -16.0002,5.70002 -16.0002,14.20002 0,8.5 6.5502,14.2 16.0002,14.2 7.9,0 14.1,-4 15.1,-10.75 h -7.15 c -0.75,2.5 -3.45,5.25 -7.95,5.25 z"
         />
        <path
           d="M 60.970337,25.243171 H 41.117035 q 0.09592,4.062188 2.445697,6.29142 2.397743,2.229266 5.514807,2.229266 5.179121,0 7.049363,-4.408955 h 4.507754 q -0.911142,3.616335 -3.980253,5.994195 -3.06911,2.377862 -7.576864,2.377862 -5.946399,0 -9.303238,-3.913559 -3.356838,-3.913592 -3.356838,-10.006874 0,-6.24191 3.548657,-10.006876 3.548659,-3.8145069 8.967557,-3.8145069 5.802532,0 9.111418,4.4089899 3.308883,4.359411 2.925242,10.849038 z M 48.933677,13.849194 q -3.117065,0 -5.322989,1.882499 -2.157967,1.882464 -2.445696,5.647427 h 15.201684 q -0.09592,-3.021885 -2.110016,-5.251117 -2.014101,-2.278809 -5.322983,-2.278809 z"
           />
        <path
           d="m 69.634627,122.59033 h -1.373101 l -2.54278,-8.03518 v 8.03518 h -1.296817 v -9.21758 h 2.174076 l 2.352072,7.6792 2.352071,-7.6792 h 2.174077 v 9.21758 h -1.296818 v -8.03518 z"
           transform="matrix(3.5302802,0,0,4.0463828,-227.34055,-458.35658)" />
        <path
           d="m 84.164795,139.26893 v 4.19358 q 0.860623,-1.40829 2.7227,-1.40829 2.769643,0 2.769643,3.23907 v 5.32022 h -1.423941 v -4.89773 q 0,-1.15793 -0.375545,-1.78384 -0.359897,-0.64155 -1.470884,-0.64155 -1.048396,0 -1.643008,0.70414 -0.578965,0.70415 -0.578965,2.04985 v 4.56913 h -1.423941 v -11.34458 z"
           transform="matrix(4.3358164,0,0,3.2946194,-227.34055,-458.35658)" />
        <path
           d="m 92.102717,9.7445434 v 5.0475626 q -2.117821,-0.20808 -4.320352,-0.20808 -5.421614,0 -8.047706,2.029454 -2.626098,1.977403 -2.626098,6.556632 V 37.844498 H 69.399707 V 9.8486753 h 7.539429 V 14.740148 Q 80.41236,9.952746 89.81547,9.6925848 q 1.355405,0 2.287247,0.051866 z"/>
      </g>
    </g>
  </g>
</svg>
