<?xml version="1.0" encoding="UTF-8">

<svg width="125px" height="150px" viewBox="25 0 115 160" focusable="false" xmlns="http://www.w3.org/2000/svg" xmlns:xlink="http://www.w3.org/1999/xlink">
   <title>MerchY Logo</title>
  <g fill='#006340'>
      <path
         d="M 46.445832,112.47918 H 43.857925 L 39.065505,97.335133 V 112.47918 H 36.621371 V 95.106658 h 4.097519 l 4.432989,14.473112 4.432988,-14.473112 h 4.097519 V 112.47918 H 51.238252 V 97.335133 Z"
      />      
      <path
         d="m 68.850413,106.75224 h -9.920309 q 0.04792,1.96489 1.222067,3.04318 1.198105,1.0783 2.755642,1.0783 2.587906,0 3.522428,-2.13263 h 2.252437 q -0.455279,1.74924 -1.988854,2.89942 -1.533574,1.15018 -3.786011,1.15018 -2.971301,0 -4.648648,-1.89301 -1.677347,-1.893 -1.677347,-4.84034 0,-3.01923 1.773196,-4.84035 1.773195,-1.845079 4.480912,-1.845079 2.899414,0 4.552799,2.132629 1.653385,2.10866 1.461688,5.2477 z m -6.014487,-5.51129 q -1.557536,0 -2.659793,0.91056 -1.078294,0.91056 -1.222067,2.73168 h 7.595986 q -0.04792,-1.46168 -1.054333,-2.53998 -1.006408,-1.10226 -2.659793,-1.10226 z"
      />
      <path
         d="m 77.812221,99.539646 v 2.324324 q -0.599052,-0.0958 -1.222067,-0.0958 -1.533574,0 -2.276399,0.93452 -0.742825,0.91056 -0.742825,3.01923 v 6.75731 H 71.390379 V 99.58757 h 2.132627 v 2.25244 q 0.982446,-2.204516 3.642239,-2.324326 0.383393,0 0.646976,0.02396 z"
      />
      <path
         d="m 85.000838,99.371911 q 2.228475,0 3.666201,1.365839 1.461688,1.36584 1.725271,3.163 h -2.204513 q -0.239621,-1.15018 -1.150181,-1.86905 -0.91056,-0.74282 -2.180551,-0.74282 -1.557537,0 -2.635831,1.22207 -1.078294,1.22206 -1.078294,3.52242 0,2.32433 1.078294,3.59432 1.078294,1.24603 2.635831,1.24603 1.317915,0 2.252437,-0.74283 0.934522,-0.76678 1.174143,-1.84508 h 2.252437 q -0.359431,1.86905 -1.964892,3.18696 -1.581498,1.31792 -3.786011,1.31792 -2.755642,0 -4.385065,-1.86905 -1.629422,-1.86904 -1.629422,-4.8643 0,-2.92338 1.701309,-4.79242 1.701309,-1.893009 4.528837,-1.893009 z"
      />
      <path
         d="m 95.184711,95.106658 v 6.421842 q 1.317915,-2.156589 4.169405,-2.156589 4.241294,0 4.241294,4.960159 v 8.14711 h -2.18055 v -7.50014 q 0,-1.77319 -0.57509,-2.73168 -0.55113,-0.98244 -2.252441,-0.98244 -1.605461,0 -2.51602,1.07829 -0.886598,1.0783 -0.886598,3.13904 v 6.99693 H 93.00416 V 95.106658 Z"
      />
      <path
         d="m 105.12896,95.106658 h 2.68375 l 4.7445,8.482582 4.84034,-8.482582 h 2.68376 l -6.37392,10.639172 v 6.73335 h -2.44413 v -6.78127 z"
      />
  </g>
</svg>
